<svg width="20" height="17" viewBox="0 0 20 17" fill="none" xmlns="http://www.w3.org/2000/svg">
<path d="M16.9419 2.28138C15.6473 1.6554 14.263 1.20043 12.8158 0.941406C12.638 1.27349 12.4304 1.72015 12.2872 2.07549C10.7487 1.83638 9.22444 1.83638 7.7143 2.07549C7.57115 1.72015 7.35879 1.27349 7.17946 0.941406C5.73066 1.20043 4.34479 1.65706 3.05016 2.2847C0.43887 6.36274 -0.269009 10.3395 0.0849305 14.2598C1.81688 15.5964 3.49534 16.4084 5.14548 16.9397C5.55291 16.3603 5.91629 15.7442 6.22933 15.095C5.63313 14.8609 5.06211 14.572 4.52255 14.2365C4.6657 14.127 4.8057 14.0124 4.94098 13.8945C8.23184 15.4852 11.8074 15.4852 15.0589 13.8945C15.1958 14.0124 15.3358 14.127 15.4774 14.2365C14.9362 14.5736 14.3636 14.8625 13.7675 15.0967C14.0805 15.7442 14.4423 16.3619 14.8513 16.9414C16.503 16.4101 18.1831 15.5981 19.915 14.2598C20.3303 9.71517 19.2055 5.77495 16.9419 2.28138ZM6.67765 11.8488C5.68976 11.8488 4.87964 10.8957 4.87964 9.7351C4.87964 8.57445 5.67246 7.6197 6.67765 7.6197C7.68284 7.6197 8.49297 8.57279 8.47566 9.7351C8.47724 10.8957 7.68284 11.8488 6.67765 11.8488ZM13.3223 11.8488C12.3344 11.8488 11.5243 10.8957 11.5243 9.7351C11.5243 8.57445 12.3171 7.6197 13.3223 7.6197C14.3275 7.6197 15.1376 8.57279 15.1203 9.7351C15.1203 10.8957 14.3275 11.8488 13.3223 11.8488Z" fill="white"/>
</svg>
