<svg width="24" height="24" viewBox="0 0 24 24" fill="none" xmlns="http://www.w3.org/2000/svg">
<g id="lets-icons:fire" opacity="0.8">
<path id="Vector" d="M9.143 2.33997C8.382 3.01997 4 7.20597 4 14H6C6 8.07897 9.843 4.39597 10.475 3.83297L9.143 2.33997ZM14.056 8.21797C12.948 4.93897 11.202 2.91897 10.736 2.41697L9.271 3.77897C9.621 4.15497 11.172 5.93597 12.16 8.85897L14.056 8.21797ZM14.262 9.05997C15 7.76797 15.83 7.02497 16.052 6.83897L14.771 5.30297C14.425 5.59097 13.415 6.51097 12.525 8.06797L14.262 9.05997ZM14.947 6.83797C15.39 7.20797 18 9.57797 18 13.941H20C20 8.71797 16.872 5.84097 16.23 5.30397L14.947 6.83797ZM18 13.941V14H20V13.941H18ZM18 14C17.9999 14.7879 17.8446 15.5681 17.543 16.296L19.391 17.061C19.793 16.091 20 15.051 20 14H18ZM17.543 16.296C17.2417 17.024 16.8 17.6856 16.243 18.243L17.657 19.657C18.3999 18.9139 18.9891 18.0318 19.391 17.061L17.543 16.296ZM16.243 18.243C15.6857 18.7999 15.0241 19.2417 14.296 19.543L15.062 21.391C16.0324 20.9889 16.9142 20.3997 17.657 19.657L16.243 18.243ZM14.296 19.543C13.5681 19.8446 12.7879 19.9999 12 20V22C13.0508 22 14.0912 21.7931 15.062 21.391L14.296 19.543ZM12 20C11.2121 19.9999 10.4319 19.8446 9.704 19.543L8.939 21.391C9.90946 21.793 10.9496 21.9999 12 22V20ZM9.704 19.543C8.97594 19.2417 8.31434 18.7999 7.757 18.243L6.343 19.657C7.08645 20.3996 7.96892 20.9885 8.94 21.39L9.704 19.543ZM7.757 18.243C7.20003 17.6856 6.75829 17.024 6.457 16.296L4.609 17.061C5.01091 18.0318 5.60013 18.9139 6.343 19.657L7.757 18.243ZM6.457 16.296C6.15539 15.5681 6.0001 14.7879 6 14H4C4.00007 15.0504 4.20701 16.0905 4.609 17.061L6.457 16.296ZM16.052 6.83897C15.8967 6.9683 15.7021 7.03913 15.5 7.03913C15.2979 7.03913 15.1023 6.9683 14.947 6.83897L16.23 5.30397C16.0256 5.13293 15.7665 5.03921 15.5 5.03921C15.2335 5.03921 14.9754 5.13193 14.771 5.30297L16.052 6.83897ZM12.161 8.85897C12.486 9.81697 13.777 9.91097 14.262 9.05997L12.525 8.06797C12.879 7.44997 13.817 7.51097 14.056 8.21797L12.161 8.85897ZM10.475 3.83297C10.307 3.98325 10.0869 4.06184 9.8617 4.05193C9.63652 4.04203 9.42415 3.94442 9.27 3.77997L10.734 2.41797C10.5317 2.19929 10.2518 2.06871 9.95424 2.05431C9.65671 2.03991 9.36542 2.14284 9.143 2.34097L10.475 3.83297Z" fill="white"/>
<path id="Vector_2" d="M15.958 16.418L14.963 16.522C14.9647 16.5353 14.9667 16.5487 14.969 16.562L15.958 16.418ZM8.042 16.418L9.032 16.563C9.03394 16.5497 9.03561 16.5363 9.037 16.523L8.042 16.418ZM10.831 10.631C10.0537 11.2532 9.34664 11.9572 8.72 12.731C7.98 13.661 7.261 14.866 7.057 16.237L9.035 16.532C9.167 15.649 9.653 14.77 10.285 13.978C10.8194 13.319 11.4228 12.7193 12.085 12.189L10.831 10.631ZM13.169 10.631C12.8384 10.3629 12.4257 10.2166 12 10.2166C11.5743 10.2166 11.1616 10.3629 10.831 10.631L12.085 12.189C12.0606 12.2075 12.0307 12.2173 12 12.217C11.9694 12.2173 11.9395 12.2074 11.915 12.189L13.169 10.631ZM16.943 16.237C16.739 14.866 16.021 13.661 15.28 12.732C14.6537 11.9583 13.946 11.2542 13.169 10.632L11.915 12.189C12.5772 12.7193 13.1806 13.3191 13.715 13.978C14.347 14.77 14.833 15.649 14.965 16.532L16.943 16.237ZM16.953 16.315C16.9503 16.2889 16.9469 16.2629 16.943 16.237L14.965 16.532L14.963 16.522L16.953 16.315ZM14.969 16.562C14.989 16.704 15 16.851 15 17H17C17.0002 16.757 16.9828 16.5144 16.948 16.274L14.969 16.562ZM15 17C15 17.7956 14.6839 18.5587 14.1213 19.1213C13.5587 19.6839 12.7956 20 12 20V22C13.3261 22 14.5979 21.4732 15.5355 20.5355C16.4732 19.5978 17 18.326 17 17H15ZM12 20C11.2044 20 10.4413 19.6839 9.87868 19.1213C9.31607 18.5587 9 17.7956 9 17H7C7 18.326 7.52678 19.5978 8.46447 20.5355C9.40215 21.4732 10.6739 22 12 22V20ZM9 17C9 16.85 9.01 16.705 9.032 16.563L7.052 16.274C7.018 16.512 7 16.754 7 17H9ZM7.057 16.237C7.05309 16.2629 7.04976 16.2889 7.047 16.315L9.037 16.522C9.03642 16.5253 9.03576 16.5286 9.035 16.532L7.057 16.237Z" fill="white"/>
</g>
</svg>
