<svg width="1920" height="58" viewBox="0 0 1920 58" fill="none" xmlns="http://www.w3.org/2000/svg">
  <path d="M1551 35H1561.49L1583.07 57.3183H1572.78L1551 35Z" fill="#C9FF58"/>
  <path d="M1575.07 35H1585.55L1607.13 57.3183H1596.85L1575.07 35Z" fill="#C9FF58"/>
  <path d="M1599.13 35H1609.62L1631.2 57.3183H1620.92L1599.13 35Z" fill="#C9FF58"/>
  <path d="M1623.2 35H1633.69L1655.27 57.3183H1644.98L1623.2 35Z" fill="#C9FF58"/>
  <path d="M1647.27 35H1657.75L1679.33 57.3183H1669.05L1647.27 35Z" fill="#C9FF58"/>
  <path d="M1671.33 35H1681.82L1703.4 57.3183H1693.12L1671.33 35Z" fill="#C9FF58"/>
  <path d="M1695.4 35H1705.89L1727.47 57.3183H1717.18L1695.4 35Z" fill="#C9FF58"/>
  <path d="M1719.47 35H1729.96L1751.54 57.3183H1741.25L1719.47 35Z" fill="#C9FF58"/>
  <path d="M1743.54 35H1754.02L1775.6 57.3183H1765.32L1743.54 35Z" fill="#C9FF58"/>
  <path d="M1767.6 35H1778.09L1799.67 57.3183H1789.38L1767.6 35Z" fill="#C9FF58"/>
  <path d="M1791.67 35H1802.16L1823.74 57.3183H1813.45L1791.67 35Z" fill="#C9FF58"/>
  <path d="M1815.74 35H1826.22L1847.8 57.3183H1837.52L1815.74 35Z" fill="#C9FF58"/>
  <path d="M1839.8 35H1850.29L1871.87 57.3183H1861.59L1839.8 35Z" fill="#C9FF58"/>
  <path d="M1863.87 35H1874.36L1895.94 57.3183H1885.65L1863.87 35Z" fill="#C9FF58"/>
  <path d="M1887.94 35H1898.43L1920.01 57.3183H1909.72L1887.94 35Z" fill="#C9FF58"/>
  <path fill-rule="evenodd" clip-rule="evenodd" d="M0 49.4001V57.8002H335L372 25H1914.5V0H1794.8L1778.2 16.6H368.5L331.5 49.4001H8.3999H0Z" fill="#C9FF58"/>
</svg>
