<svg width="16" height="17" viewBox="0 0 16 17" fill="none" xmlns="http://www.w3.org/2000/svg">
<g clip-path="url(#clip0_323_2421)">
<path d="M8 2.38203C10.1375 2.38203 10.3906 2.39141 11.2313 2.42891C12.0125 2.46328 12.4344 2.59453 12.7156 2.70391C13.0875 2.84766 13.3563 3.02266 13.6344 3.30078C13.9156 3.58203 14.0875 3.84766 14.2313 4.21953C14.3406 4.50078 14.4719 4.92578 14.5063 5.70391C14.5438 6.54766 14.5531 6.80078 14.5531 8.93516C14.5531 11.0727 14.5438 11.3258 14.5063 12.1664C14.4719 12.9477 14.3406 13.3695 14.2313 13.6508C14.0875 14.0227 13.9125 14.2914 13.6344 14.5695C13.3531 14.8508 13.0875 15.0227 12.7156 15.1664C12.4344 15.2758 12.0094 15.407 11.2313 15.4414C10.3875 15.4789 10.1344 15.4883 8 15.4883C5.8625 15.4883 5.60938 15.4789 4.76875 15.4414C3.9875 15.407 3.56563 15.2758 3.28438 15.1664C2.9125 15.0227 2.64375 14.8477 2.36563 14.5695C2.08438 14.2883 1.9125 14.0227 1.76875 13.6508C1.65938 13.3695 1.52813 12.9445 1.49375 12.1664C1.45625 11.3227 1.44688 11.0695 1.44688 8.93516C1.44688 6.79766 1.45625 6.54453 1.49375 5.70391C1.52813 4.92266 1.65938 4.50078 1.76875 4.21953C1.9125 3.84766 2.0875 3.57891 2.36563 3.30078C2.64688 3.01953 2.9125 2.84766 3.28438 2.70391C3.56563 2.59453 3.99063 2.46328 4.76875 2.42891C5.60938 2.39141 5.8625 2.38203 8 2.38203ZM8 0.941406C5.82813 0.941406 5.55625 0.950781 4.70313 0.988281C3.85313 1.02578 3.26875 1.16328 2.7625 1.36016C2.23438 1.56641 1.7875 1.83828 1.34375 2.28516C0.896875 2.72891 0.625 3.17578 0.41875 3.70078C0.221875 4.21016 0.084375 4.79141 0.046875 5.64141C0.009375 6.49766 0 6.76953 0 8.94141C0 11.1133 0.009375 11.3852 0.046875 12.2383C0.084375 13.0883 0.221875 13.6727 0.41875 14.1789C0.625 14.707 0.896875 15.1539 1.34375 15.5977C1.7875 16.0414 2.23438 16.3164 2.75938 16.5195C3.26875 16.7164 3.85 16.8539 4.7 16.8914C5.55313 16.9289 5.825 16.9383 7.99688 16.9383C10.1688 16.9383 10.4406 16.9289 11.2938 16.8914C12.1438 16.8539 12.7281 16.7164 13.2344 16.5195C13.7594 16.3164 14.2063 16.0414 14.65 15.5977C15.0938 15.1539 15.3688 14.707 15.5719 14.182C15.7688 13.6727 15.9063 13.0914 15.9438 12.2414C15.9813 11.3883 15.9906 11.1164 15.9906 8.94453C15.9906 6.77266 15.9813 6.50078 15.9438 5.64766C15.9063 4.79766 15.7688 4.21328 15.5719 3.70703C15.375 3.17578 15.1031 2.72891 14.6563 2.28516C14.2125 1.84141 13.7656 1.56641 13.2406 1.36328C12.7313 1.16641 12.15 1.02891 11.3 0.991406C10.4438 0.950781 10.1719 0.941406 8 0.941406Z" fill="white"/>
<path d="M8 4.83203C5.73125 4.83203 3.89062 6.67266 3.89062 8.94141C3.89062 11.2102 5.73125 13.0508 8 13.0508C10.2688 13.0508 12.1094 11.2102 12.1094 8.94141C12.1094 6.67266 10.2688 4.83203 8 4.83203ZM8 11.607C6.52813 11.607 5.33437 10.4133 5.33437 8.94141C5.33437 7.46953 6.52813 6.27578 8 6.27578C9.47188 6.27578 10.6656 7.46953 10.6656 8.94141C10.6656 10.4133 9.47188 11.607 8 11.607Z" fill="white"/>
<path d="M13.2312 4.66958C13.2312 5.20083 12.8 5.62896 12.2719 5.62896C11.7406 5.62896 11.3125 5.19771 11.3125 4.66958C11.3125 4.13833 11.7438 3.71021 12.2719 3.71021C12.8 3.71021 13.2312 4.14146 13.2312 4.66958Z" fill="white"/>
</g>
<defs>
<clipPath id="clip0_323_2421">
<rect width="16" height="16" fill="white" transform="translate(0 0.941406)"/>
</clipPath>
</defs>
</svg>
