<svg width="16" height="16" viewBox="0 0 16 16" fill="none" xmlns="http://www.w3.org/2000/svg">
<g id="lets-icons:fire">
<path id="Vector" d="M6.09529 1.56C5.58796 2.01333 2.66663 4.804 2.66663 9.33333H3.99996C3.99996 5.386 6.56196 2.93066 6.98329 2.55533L6.09529 1.56ZM9.37063 5.47866C8.63196 3.29267 7.46796 1.946 7.15729 1.61133L6.18063 2.51933C6.41396 2.77 7.44796 3.95733 8.10663 5.906L9.37063 5.47866ZM9.50796 6.04C9.99996 5.17867 10.5533 4.68333 10.7013 4.55933L9.84729 3.53533C9.61663 3.72733 8.94329 4.34066 8.34996 5.37866L9.50796 6.04ZM9.96463 4.55866C10.26 4.80533 12 6.38533 12 9.294H13.3333C13.3333 5.812 11.248 3.894 10.82 3.536L9.96463 4.55866ZM12 9.294V9.33333H13.3333V9.294H12ZM12 9.33333C11.9999 9.85861 11.8964 10.3787 11.6953 10.864L12.9273 11.374C13.1953 10.7273 13.3333 10.034 13.3333 9.33333H12ZM11.6953 10.864C11.4944 11.3494 11.1999 11.7904 10.8286 12.162L11.7713 13.1047C12.2665 12.6093 12.6594 12.0212 12.9273 11.374L11.6953 10.864ZM10.8286 12.162C10.4571 12.5333 10.016 12.8278 9.53063 13.0287L10.0413 14.2607C10.6883 13.9926 11.2761 13.5998 11.7713 13.1047L10.8286 12.162ZM9.53063 13.0287C9.04536 13.2297 8.52524 13.3333 7.99996 13.3333V14.6667C8.70046 14.6667 9.39411 14.5287 10.0413 14.2607L9.53063 13.0287ZM7.99996 13.3333C7.47468 13.3333 6.95456 13.2297 6.46929 13.0287L5.95929 14.2607C6.60626 14.5287 7.29968 14.6666 7.99996 14.6667V13.3333ZM6.46929 13.0287C5.98392 12.8278 5.54286 12.5333 5.17129 12.162L4.22863 13.1047C4.72426 13.5997 5.31257 13.9923 5.95996 14.26L6.46929 13.0287ZM5.17129 12.162C4.79998 11.7904 4.50548 11.3494 4.30463 10.864L3.07263 11.374C3.34057 12.0212 3.73338 12.6093 4.22863 13.1047L5.17129 12.162ZM4.30463 10.864C4.10355 10.3787 4.00003 9.85861 3.99996 9.33333H2.66663C2.66667 10.0336 2.80463 10.727 3.07263 11.374L4.30463 10.864ZM10.7013 4.55933C10.5978 4.64555 10.468 4.69277 10.3333 4.69277C10.1986 4.69277 10.0681 4.64555 9.96463 4.55933L10.82 3.536C10.6837 3.42197 10.511 3.35949 10.3333 3.35949C10.1556 3.35949 9.98357 3.4213 9.84729 3.53533L10.7013 4.55933ZM8.10729 5.906C8.32396 6.54466 9.18463 6.60733 9.50796 6.04L8.34996 5.37866C8.58596 4.96666 9.21129 5.00733 9.37063 5.47866L8.10729 5.906ZM6.98329 2.55533C6.8713 2.65552 6.72455 2.70791 6.57443 2.70131C6.42431 2.6947 6.28273 2.62963 6.17996 2.52L7.15596 1.612C7.02113 1.46621 6.83447 1.37916 6.63612 1.36956C6.43777 1.35996 6.24357 1.42858 6.09529 1.56067L6.98329 2.55533Z" fill="#C9FF58"/>
<path id="Vector_2" d="M10.6386 10.9453L9.97529 11.0147C9.97643 11.0236 9.97776 11.0325 9.97929 11.0413L10.6386 10.9453ZM5.36129 10.9453L6.02129 11.042C6.02259 11.0331 6.0237 11.0242 6.02463 11.0153L5.36129 10.9453ZM7.22063 7.08733C6.70243 7.50214 6.23105 7.97151 5.81329 8.48733C5.31996 9.10733 4.84063 9.91067 4.70463 10.8247L6.02329 11.0213C6.11129 10.4327 6.43529 9.84667 6.85663 9.31867C7.21287 8.87939 7.61517 8.47955 8.05663 8.126L7.22063 7.08733ZM8.77929 7.08733C8.55888 6.9086 8.28373 6.81106 7.99996 6.81106C7.71619 6.81106 7.44104 6.9086 7.22063 7.08733L8.05663 8.126C8.04034 8.13834 8.0204 8.14491 7.99996 8.14467C7.97953 8.14486 7.95961 8.1383 7.94329 8.126L8.77929 7.08733ZM11.2953 10.8247C11.1593 9.91067 10.6806 9.10733 10.1866 8.488C9.7691 7.97219 9.29727 7.50282 8.77929 7.088L7.94329 8.126C8.38473 8.47957 8.78702 8.8794 9.14329 9.31867C9.56463 9.84667 9.88863 10.4327 9.97663 11.0213L11.2953 10.8247ZM11.302 10.8767C11.3001 10.8593 11.2979 10.8419 11.2953 10.8247L9.97663 11.0213L9.97529 11.0147L11.302 10.8767ZM9.97929 11.0413C9.99263 11.136 9.99996 11.234 9.99996 11.3333H11.3333C11.3334 11.1714 11.3219 11.0096 11.2986 10.8493L9.97929 11.0413ZM9.99996 11.3333C9.99996 11.8638 9.78925 12.3725 9.41417 12.7475C9.0391 13.1226 8.53039 13.3333 7.99996 13.3333V14.6667C8.88401 14.6667 9.73186 14.3155 10.357 13.6904C10.9821 13.0652 11.3333 12.2174 11.3333 11.3333H9.99996ZM7.99996 13.3333C7.46953 13.3333 6.96082 13.1226 6.58575 12.7475C6.21067 12.3725 5.99996 11.8638 5.99996 11.3333H4.66663C4.66663 12.2174 5.01782 13.0652 5.64294 13.6904C6.26806 14.3155 7.1159 14.6667 7.99996 14.6667V13.3333ZM5.99996 11.3333C5.99996 11.2333 6.00663 11.1367 6.02129 11.042L4.70129 10.8493C4.67863 11.008 4.66663 11.1693 4.66663 11.3333H5.99996ZM4.70463 10.8247C4.70202 10.8419 4.6998 10.8593 4.69796 10.8767L6.02463 11.0147C6.02424 11.0169 6.0238 11.0191 6.02329 11.0213L4.70463 10.8247Z" fill="#C9FF58"/>
</g>
</svg>
