<svg xmlns="http://www.w3.org/2000/svg" width="143" height="68" viewBox="0 0 143 68" fill="none">
  <g style="mix-blend-mode:hard-light">
    <path fill-rule="evenodd" clip-rule="evenodd" d="M108.522 38.8393H121.372V34.5537H114.305L121.372 25.2171V20.9825H109.04L106.272 25.2171H115.59L108.522 34.5537V38.8393ZM135.301 25.245L137.217 21.0104H122.45V38.8672H135.301V34.5816H127.385V31.7755H134.632V27.9491H127.385V25.245H135.301Z" fill="white"/>
  </g>
  <g filter="url(#filter0_d_33_1875)">
    <path fill-rule="evenodd" clip-rule="evenodd" d="M56.5015 22.8015C57.8546 24.2611 58.69 26.1793 58.7248 28.2825V28.5358L58.7118 28.7663C58.6291 30.7265 57.8503 32.5142 56.6059 33.9065C55.479 35.1685 53.9692 36.1023 52.2549 36.544C51.5413 36.7291 50.793 36.8258 50.0185 36.8258H32.7363C31.9619 36.8258 31.2135 36.7291 30.4999 36.544C29.7764 36.3594 29.0893 36.0855 28.452 35.7358V37.7934C28.452 39.0121 27.464 40 26.2454 40C25.0267 40 24.0388 39.0121 24.0388 37.7934V28.6849C24.0388 28.6585 24.0392 28.6323 24.0401 28.6061L24.0387 28.5265V28.2825C24.0735 26.1793 24.9089 24.2611 26.2621 22.8015C27.6065 21.3545 29.4644 20.3575 31.5529 20.0799C31.9401 20.0252 32.336 20 32.7407 20H50.0228C50.4275 20 50.8234 20.0294 51.2107 20.0799C53.3035 20.3575 55.157 21.3545 56.5015 22.8015ZM28.3958 28.188C28.4743 26.751 29.3005 25.5036 30.5043 24.8038C31.1569 24.4252 31.9227 24.2065 32.7407 24.2065H50.0228C50.8408 24.2065 51.6023 24.4252 52.2593 24.8038C53.5254 25.5399 54.3738 26.8818 54.3738 28.4129C54.3738 29.9441 53.5254 31.2859 52.2593 32.0221C51.6066 32.4006 50.8408 32.6194 50.0228 32.6194H32.7407C31.9227 32.6194 31.1613 32.4006 30.5043 32.0221C29.4389 31.4027 28.6693 30.3544 28.452 29.1254V28.6849C28.452 28.514 28.4326 28.3477 28.3958 28.188ZM79.8697 36.9401C80.0153 36.5484 80.3891 36.2885 80.807 36.2885H85.6458C86.0686 36.2885 86.4457 36.5544 86.5877 36.9526L87.0237 38.1753C87.1657 38.5735 87.5428 38.8394 87.9656 38.8394H91.213C91.9211 38.8394 92.4049 38.1237 92.1409 37.4666L85.7702 21.6099C85.6179 21.2309 85.2506 20.9827 84.8423 20.9827H81.5821C81.1737 20.9827 80.8064 21.2309 80.6542 21.6099L74.2834 37.4666C74.0194 38.1237 74.5032 38.8394 75.2113 38.8394H78.4686C78.8866 38.8394 79.2604 38.5795 79.406 38.1878L79.8697 36.9401ZM84.5169 31.1263C84.7489 31.7774 84.2662 32.462 83.5749 32.462H82.9737C82.2764 32.462 81.7931 31.7663 82.0366 31.1128L82.3439 30.2881C82.6697 29.4137 83.9096 29.4226 84.2229 30.3016L84.5169 31.1263ZM101.393 30.6301C101.393 30.4369 101.449 30.2478 101.554 30.0857L106.442 22.5547C106.874 21.8894 106.396 21.0103 105.603 21.0103H102.323C101.984 21.0103 101.668 21.1818 101.484 21.4661L99.6568 24.2828C99.2626 24.8906 98.373 24.8906 97.9788 24.2828L96.1521 21.4661C95.9677 21.1818 95.6519 21.0103 95.3131 21.0103H92.0324C91.2393 21.0103 90.7618 21.8894 91.1936 22.5547L96.0815 30.0857C96.1867 30.2478 96.2427 30.4369 96.2427 30.6301V37.867C96.2427 38.4193 96.6904 38.867 97.2427 38.867H100.393C100.945 38.867 101.393 38.4193 101.393 37.867V30.6301ZM46.1982 30.9811C46.8182 30.9811 47.3208 30.4815 47.3208 29.8652C47.3208 29.2488 46.8182 28.7492 46.1982 28.7492C45.5783 28.7492 45.0757 29.2488 45.0757 29.8652C45.0757 30.4815 45.5783 30.9811 46.1982 30.9811ZM50.2924 27.1658C50.2924 27.7821 49.7898 28.2818 49.1698 28.2818C48.5498 28.2818 48.0473 27.7821 48.0473 27.1658C48.0473 26.5495 48.5498 26.0498 49.1698 26.0498C49.7898 26.0498 50.2924 26.5495 50.2924 27.1658ZM38.8359 28.5156C38.8359 29.0347 38.4139 29.4543 37.8918 29.4543H37.0172V30.3237C37.0172 30.8427 36.5952 31.2623 36.0731 31.2623C35.5509 31.2623 35.1289 30.8427 35.1289 30.3237V29.4543H34.2543C33.7322 29.4543 33.3102 29.0347 33.3102 28.5156C33.3102 27.9966 33.7322 27.577 34.2543 27.577H35.1289V26.7076C35.1289 26.1885 35.5509 25.7689 36.0731 25.7689C36.5952 25.7689 37.0172 26.1885 37.0172 26.7076V27.577H37.8918C38.4139 27.577 38.8359 27.9966 38.8359 28.5156ZM64.7886 21.9827C64.7886 21.4304 64.3409 20.9827 63.7886 20.9827H60.8028C60.2505 20.9827 59.8028 21.4304 59.8028 21.9827V37.8394C59.8028 38.3917 60.2505 38.8394 60.8028 38.8394H71.48C71.8775 38.8394 72.2373 38.604 72.3964 38.2397L73.4392 35.852C73.7277 35.1914 73.2436 34.4518 72.5228 34.4518H65.7886C65.2364 34.4518 64.7886 34.004 64.7886 33.4518V21.9827Z" fill="#C9FF58"/>
  </g>
  <defs>
    <filter id="filter0_d_33_1875" x="0.0386963" y="0" width="130.566" height="68" filterUnits="userSpaceOnUse" color-interpolation-filters="sRGB">
      <feFlood flood-opacity="0" result="BackgroundImageFix"/>
      <feColorMatrix in="SourceAlpha" type="matrix" values="0 0 0 0 0 0 0 0 0 0 0 0 0 0 0 0 0 0 127 0" result="hardAlpha"/>
      <feOffset dy="4"/>
      <feGaussianBlur stdDeviation="12"/>
      <feComposite in2="hardAlpha" operator="out"/>
      <feColorMatrix type="matrix" values="0 0 0 0 0.572549 0 0 0 0 1 0 0 0 0 0.309804 0 0 0 0.2 0"/>
      <feBlend mode="normal" in2="BackgroundImageFix" result="effect1_dropShadow_33_1875"/>
      <feBlend mode="normal" in="SourceGraphic" in2="effect1_dropShadow_33_1875" result="shape"/>
    </filter>
  </defs>
</svg>
