<svg width="321" height="98" viewBox="0 0 321 98" fill="none" xmlns="http://www.w3.org/2000/svg">
  <g style="mix-blend-mode:hard-light">
    <path fill-rule="evenodd" clip-rule="evenodd" d="M235.305 67.0984H267.43V56.3844H249.762L267.43 33.043V22.4565H236.601L229.681 33.043H252.974L235.305 56.3844V67.0984ZM302.251 33.1128L307.042 22.5263H270.126V67.1682H302.251V56.4541H282.462V49.439H300.581V39.8729H282.462V33.1128H302.251Z" fill="white"/>
  </g>
  <g filter="url(#filter0_d_323_765)">
    <path fill-rule="evenodd" clip-rule="evenodd" d="M105.254 27.0038C108.637 30.6529 110.725 35.4482 110.812 40.7063V41.3394L110.779 41.9157C110.573 46.8162 108.626 51.2855 105.515 54.7664C102.697 57.9212 98.9229 60.2558 94.6372 61.36C92.8533 61.8227 90.9824 62.0646 89.0462 62.0646H45.8408C43.9046 62.0646 42.0337 61.8227 40.2498 61.36C38.4409 60.8984 36.7231 60.2139 35.1299 59.3396V64.4835C35.1299 67.5302 32.6601 70.0001 29.6134 70.0001C26.5667 70.0001 24.0968 67.5302 24.0968 64.4835V41.7122C24.0968 41.6463 24.098 41.5807 24.1003 41.5154L24.0967 41.3162V40.7063C24.1837 35.4482 26.2722 30.6529 29.6551 27.0038C33.0162 23.3862 37.6609 20.8939 42.8821 20.1998C43.8502 20.0631 44.84 20 45.8517 20H89.057C90.0686 20 91.0585 20.0736 92.0266 20.1998C97.2587 20.8939 101.892 23.3862 105.254 27.0038ZM34.9895 40.4701C35.1857 36.8775 37.2512 33.7591 40.2606 32.0094C41.8923 31.063 43.8067 30.5161 45.8517 30.5161H89.057C91.102 30.5161 93.0056 31.063 94.6481 32.0094C97.8134 33.8498 99.9345 37.2044 99.9345 41.0323C99.9345 44.8602 97.8134 48.2148 94.6481 50.0551C93.0165 51.0016 91.102 51.5484 89.057 51.5484H45.8517C43.8067 51.5484 41.9031 51.0016 40.2606 50.0551C37.5972 48.5067 35.6732 45.886 35.1299 42.8135V41.7122C35.1299 41.2851 35.0814 40.8693 34.9895 40.4701ZM164.037 61.3728C164.183 60.981 164.557 60.7211 164.975 60.7211H179.172C179.595 60.7211 179.972 60.987 180.114 61.3853L181.914 66.4344C182.056 66.8326 182.434 67.0986 182.856 67.0986H194.252C194.96 67.0986 195.443 66.3828 195.18 65.7257L178.047 23.0839C177.895 22.7049 177.528 22.4567 177.119 22.4567H166.941C166.533 22.4567 166.166 22.7049 166.013 23.0839L148.881 65.7257C148.617 66.3828 149.101 67.0986 149.809 67.0986H161.214C161.632 67.0986 162.006 66.8387 162.152 66.4469L164.037 61.3728ZM176.006 49.8193C176.238 50.4704 175.755 51.155 175.064 51.155H169.274C168.577 51.155 168.094 50.4593 168.337 49.8059L171.297 41.8639C171.622 40.9895 172.862 40.9984 173.176 41.8774L176.006 49.8193ZM217.482 46.1311C217.482 45.9379 217.538 45.7488 217.643 45.5867L231.609 24.07C232.04 23.4048 231.563 22.5256 230.77 22.5256H218.991C218.652 22.5256 218.337 22.6972 218.152 22.9815L211.884 32.6475C211.489 33.2553 210.6 33.2553 210.206 32.6475L203.937 22.9815C203.752 22.6972 203.437 22.5256 203.098 22.5256H191.319C190.526 22.5256 190.049 23.4048 190.48 24.07L204.446 45.5867C204.551 45.7488 204.607 45.9379 204.607 46.1311V66.1675C204.607 66.7198 205.054 67.1675 205.607 67.1675H216.482C217.035 67.1675 217.482 66.7198 217.482 66.1675V46.1311ZM79.4955 47.4528C81.0454 47.4528 82.3019 46.2037 82.3019 44.6629C82.3019 43.1221 81.0454 41.873 79.4955 41.873C77.9456 41.873 76.6891 43.1221 76.6891 44.6629C76.6891 46.2037 77.9456 47.4528 79.4955 47.4528ZM89.7309 37.9145C89.7309 39.4554 88.4744 40.7044 86.9245 40.7044C85.3746 40.7044 84.1181 39.4554 84.1181 37.9145C84.1181 36.3737 85.3746 35.1246 86.9245 35.1246C88.4744 35.1246 89.7309 36.3737 89.7309 37.9145ZM61.0898 41.2891C61.0898 42.5867 60.0347 43.6356 58.7294 43.6356H56.543V45.8092C56.543 47.1068 55.4879 48.1558 54.1826 48.1558C52.8773 48.1558 51.8222 47.1068 51.8222 45.8092V43.6356H49.6358C48.3305 43.6356 47.2754 42.5867 47.2754 41.2891C47.2754 39.9914 48.3305 38.9425 49.6358 38.9425H51.8222V36.7689C51.8222 35.4713 52.8773 34.4224 54.1826 34.4224C55.4879 34.4224 56.543 35.4713 56.543 36.7689V38.9425H58.7294C60.0347 38.9425 61.0898 39.9914 61.0898 41.2891ZM125.972 23.4567C125.972 22.9044 125.524 22.4567 124.972 22.4567H114.507C113.955 22.4567 113.507 22.9044 113.507 23.4567V66.0985C113.507 66.6508 113.955 67.0985 114.507 67.0985H143.682C144.079 67.0985 144.439 66.8631 144.598 66.4988L148.515 57.5296C148.804 56.869 148.32 56.1294 147.599 56.1294H126.972C126.419 56.1294 125.972 55.6817 125.972 55.1294V23.4567Z" fill="#C9FF58"/>
  </g>
  <defs>
    <filter id="filter0_d_323_765" x="0.0966797" y="0" width="255.675" height="98" filterUnits="userSpaceOnUse" color-interpolation-filters="sRGB">
      <feFlood flood-opacity="0" result="BackgroundImageFix"/>
      <feColorMatrix in="SourceAlpha" type="matrix" values="0 0 0 0 0 0 0 0 0 0 0 0 0 0 0 0 0 0 127 0" result="hardAlpha"/>
      <feOffset dy="4"/>
      <feGaussianBlur stdDeviation="12"/>
      <feComposite in2="hardAlpha" operator="out"/>
      <feColorMatrix type="matrix" values="0 0 0 0 0.572549 0 0 0 0 1 0 0 0 0 0.309804 0 0 0 0.2 0"/>
      <feBlend mode="normal" in2="BackgroundImageFix" result="effect1_dropShadow_323_765"/>
      <feBlend mode="normal" in="SourceGraphic" in2="effect1_dropShadow_323_765" result="shape"/>
    </filter>
  </defs>
</svg>
